# xmcd
#
# Track frame offsets:
#	150
#	18267
#	34933
#	49747
#	66469
#	76864
#	94835
#	109066
#	123617
#	139599
#	153936
#	165837
#	177582
#	193419
#	204689
#	218059
#	233824
#	244698
#	254282
#	267350
#	286757
#
# Disc length: 4084 seconds
#
# Revision: 0
# Processed by: cddbd v1.5.2PL0 Copyright (c) Steve Scherf et al.
# Submitted via: EZCDAudioConverter 4.0.5.1
#
DISCID=2c0ff215
DTITLE=ERG Music - Nu Urban Traxx Volume 261 US
DYEAR=209
DGENRE=Urban
TTITLE0=Beyonce - Before I Let Go [Homecoming Live Bonus Track]
TTITLE1=Mary J. Blige and Nas - Thriving
TTITLE2=Angelica Vila - More In The Morning
TTITLE3=Chris Brown ft. Nicki Minaj and G-Eazy - Wobble Up [Squeaky Clean Mix]
TTITLE4=Marshmello, Tyga and Chris Brow - Light It Up
TTITLE5=YG ft. Tyga and Jon Z - Go Loko
TTITLE6=Juice WRLD - Hear Me Calling
TTITLE7=LightSkinKeisha - Believe Dat
TTITLE8=Jessie Reyez ft. 6lack - Imported
TTITLE9=Key Glock - Yea!!
TTITLE10=Tyga - Damn
TTITLE11=PnB Rock ft. Lil Skies - I Like Girls\n
TTITLE12=Ball Greezy ft. Lyriq Tye - I'm In Love
TTITLE13=NAV ft. Meek Mill - Tap
TTITLE14=PopLord ft. Lil Baby - Call Me Daddy
TTITLE15=Iyla - Juice
TTITLE16=Russ - Civil War
TTITLE17=Saweetie - My Type
TTITLE18=Lizzo - Truth Hurts
TTITLE19=Robin Thicke - That's What Love Can Do
TTITLE20=Johnny Gill - Soul Of A Woman\n
EXTD=
EXTT0=
EXTT1=
EXTT2=
EXTT3=
EXTT4=
EXTT5=
EXTT6=
EXTT7=
EXTT8=
EXTT9=
EXTT10=
EXTT11=
EXTT12=
EXTT13=
EXTT14=
EXTT15=
EXTT16=
EXTT17=
EXTT18=
EXTT19=
EXTT20=
PLAYORDER=
